<?xml version="1.0" encoding="utf-8"?>
<!-- Generator: Adobe Illustrator 26.5.0, SVG Export Plug-In . SVG Version: 6.00 Build 0)  -->
<svg version="1.1" id="Layer_1" xmlns="http://www.w3.org/2000/svg" xmlns:xlink="http://www.w3.org/1999/xlink" x="0px" y="0px"
	 viewBox="0 0 81.7 81.7" style="enable-background:new 0 0 81.7 81.7;" xml:space="preserve">
<style type="text/css">
	.st0{fill:url(#SVGID_1_);}
	.st1{fill:url(#SVGID_00000106122892663704809980000011571509306422437262_);}
	.st2{fill:#111224;}
	.st3{fill:#FFFFFF;}
</style>
<linearGradient id="SVGID_1_" gradientUnits="userSpaceOnUse" x1="-5.0329" y1="77.16" x2="94.2004" y2="3.7411" gradientTransform="matrix(1 0 0 -1 0 84)">
	<stop  offset="0.3959" style="stop-color:#FFFFFF"/>
	<stop  offset="0.8693" style="stop-color:#5F6062"/>
</linearGradient>
<rect x="-0.2" y="-0.4" class="st0" width="82" height="82.3"/>
<linearGradient id="SVGID_00000090284219739346603040000003210200252787977369_" gradientUnits="userSpaceOnUse" x1="14.2136" y1="46.8312" x2="82.4533" y2="-3.6567" gradientTransform="matrix(1 0 0 -1 0 84)">
	<stop  offset="0.3959" style="stop-color:#FFFFFF"/>
	<stop  offset="0.8693" style="stop-color:#5F6062"/>
</linearGradient>
<polygon style="fill:url(#SVGID_00000090284219739346603040000003210200252787977369_);" points="80.3,80.1 1.6,80.1 1.6,53.8 
	80.3,33.8 "/>
<path d="M81.8,82h-82V53l82-20.4V82z M1.8,79.9h77.9V35.4L1.8,54.5V79.9z"/>
<g>
	<path class="st2" d="M49.9,72H30.1c-0.7,0-1.3-1-1.3-2.1l-6-45.5c0-1.2,0.9-0.9,2-0.9h30.3c1.1,0,2-0.3,2,0.9l-6,45.5
		C51.2,71.1,50.6,72,49.9,72z"/>
	<path class="st3" d="M48.6,70.4H31.3c-0.6,0-1.2-0.9-1.2-2L25,25.9c0-1.1,0.8-0.8,1.8-0.8h26.5c1,0,1.8-0.3,1.8,0.8l-5.2,42.4
		C49.8,69.5,49.3,70.4,48.6,70.4z"/>
	<path class="st2" d="M48.2,69.5H31.7c-0.6,0-1.1-0.7-1.1-1.5l-3.5-31.3c0-0.8,0.8-0.6,1.7-0.6H51c0.9,0,1.7-0.2,1.7,0.6L49.3,68
		C49.3,68.8,48.8,69.5,48.2,69.5z"/>
	<path class="st3" d="M32.5,64.8l-0.3-0.1c0,0-0.2-0.2-0.2-1l-2.9-30.8c-0.1-0.8,0-0.6,0.1-0.6l1.6-0.1c0.1,0,0.1-0.2,0.2,0.6
		l1.7,30.7C32.7,64.2,32.5,64.8,32.5,64.8z"/>
	<polygon class="st3" points="47.8,35.8 44.6,35.3 41.4,55.1 44.6,55.6 	"/>
	<polygon class="st2" points="52.8,4.8 49.5,4.3 46.7,22.5 50,22.5 	"/>
	<polygon class="st2" points="49.2,26 46,26 44.6,35.3 47.9,35.3 	"/>
	<ellipse class="st3" cx="40.8" cy="67.8" rx="2" ry="2"/>
	<ellipse class="st3" cx="34.1" cy="67.5" rx="2" ry="2"/>
	<ellipse class="st3" cx="46.5" cy="67.7" rx="2" ry="2"/>
	<ellipse class="st3" cx="47.1" cy="62.6" rx="2" ry="2"/>
	<ellipse class="st3" cx="32.5" cy="61.4" rx="2" ry="2"/>
	<ellipse class="st3" cx="33.5" cy="55.7" rx="2" ry="2"/>
	<ellipse class="st3" cx="39" cy="62.3" rx="2" ry="2"/>
	<ellipse class="st3" cx="43.8" cy="58.3" rx="2" ry="2"/>
	<ellipse class="st3" cx="49" cy="55.1" rx="2" ry="2"/>
	<ellipse class="st3" cx="38.6" cy="56.5" rx="2" ry="2"/>
</g>
</svg>
