<?xml version="1.0" encoding="utf-8"?>
<!-- Generator: Adobe Illustrator 26.5.0, SVG Export Plug-In . SVG Version: 6.00 Build 0)  -->
<svg version="1.1" id="Layer_1" xmlns="http://www.w3.org/2000/svg" xmlns:xlink="http://www.w3.org/1999/xlink" x="0px" y="0px"
	 viewBox="0 0 297 386" style="enable-background:new 0 0 297 386;" xml:space="preserve">
<style type="text/css">
	.st0{fill:#FFFFFF;}
	.st1{fill:#BABABA;}
</style>
<g>
	<path class="st0" d="M40.43,212.25c0,0-0.2-18.98-0.52-46.31c-0.32-27.33,24.16-63.68,42.98-71.73s107.35-23.79,133.25,10.15
		s18.85,84.91,20.8,93.02s-2.25,23.82-2.25,23.82s3.82,4.36,9.91,0c6.09-4.36,15-9.25,15.99,4.74c1.41,19.92-8.55,41.67-18.97,51.02
		c-9.44,8.47-12.54,6.77-13.86,2.57c-0.14-0.44-0.25-0.9-0.36-1.38c-1.1-5.13-6.06,24.26-37,56.28s-87.73,37.96-109.59,10.33
		c-21.86-27.63-30.65-42.69-36.7-71.03c0,0-3.5,14.71-17.54-33.54c0,0-4.19-17.75,5-21.6c2.92-1.22,6.52,3.67,6.52,3.67
		L40.43,212.25z"/>
	<g>
		<path class="st1" d="M171.8,254.38c0,0,1.67,3.25,4.31,5.66c2.64,2.41,9.05,4.78,9.19,11.46c0.14,6.68-5.43,15.73-5.43,15.73
			s5.15-9.32,2.51-16.42c-2.64-7.1-7.35-8.97-7.65-10.76S171.8,254.38,171.8,254.38z"/>
		<path class="st1" d="M86.79,254.75c0,0-4.08,7.67-6.77,10.28s-5.55,8.24-6.12,10.77c-0.57,2.53,0,6.45,0,6.45
			s-2.29-5.96-1.31-10.28c0.98-4.33,5.63-10.47,9.06-13.23S86.79,254.75,86.79,254.75z"/>
		<path d="M144.45,233.01c0,0,9.97,1.55,11.96,9.52c1.99,7.97-2.44,11.85-2.44,11.85s4.54-0.55,5.31-6.64
			C160.06,241.65,157.41,234.56,144.45,233.01z"/>
		<path d="M88,290.04c0,0,15.5,26.12,45.59,19.93c23.88-4.91,30.77-19.93,30.77-19.93s-23.46,9.55-38.59,11.46
			C112.59,303.17,88,290.04,88,290.04z"/>
		<path d="M244.59,221.2c0,0,10.85-10.6,15.45-2.71c4.6,7.89,0.66,31.23-7.73,46.68s-13.97,17.08-13.97,17.08
			s19.4-21.61,20.71-45.48S252.15,219.64,244.59,221.2z"/>
		<path d="M44.09,275.36c0,0,19.66,82.86,78.8,82.78c38.82-0.06,79.11-36.42,79.11-36.42s-36.02,47-79.11,43.13
			C58.57,359.08,44.09,275.36,44.09,275.36z"/>
		<circle cx="170.68" cy="199.78" r="7.37"/>
		<ellipse transform="matrix(0.9981 -0.0621 0.0621 0.9981 -12.1934 5.5315)" cx="82.89" cy="198.93" rx="7.21" ry="7.37"/>
		<path d="M150.29,203.47c0,0,7.78-11.68,18.75-11.91c10.97-0.23,26.8,11.91,26.8,11.91s-14.86-8.93-24.49-9.5
			s-19.95,9.16-19.95,9.16L150.29,203.47z"/>
		<path d="M103.02,201.37c0,0-8.32-11.19-19.04-10.75s-25.42,13.51-25.42,13.51s13.95-9.81,23.32-10.96s20.04,7.94,20.04,7.94
			L103.02,201.37z"/>
		<path d="M148.78,177.29c0,0,8.91-8.95,16.72-9.45c7.81-0.5,14.87,0.75,23.1,4.17c8.24,3.42,16.36,10.91,16.36,10.91
			s-26.62-12.13-38.25-8.41C151.02,179.52,148.78,177.29,148.78,177.29z"/>
		<path d="M105.04,177.37c0,0-8.56-8.95-16.07-9.45c-7.51-0.5-14.28,0.75-22.2,4.17C58.86,175.51,51.05,183,51.05,183
			s25.58-12.13,36.75-8.41C102.89,179.59,105.04,177.37,105.04,177.37z"/>
		<path d="M85.27,285.23c0,0,17.48-9.85,27.94-9.85s13.87,1.61,13.87,1.61s5.63-1.81,12.16-1.61c6.53,0.2,22.01,5.71,27.84,6.87
			c5.83,1.17,9.81,0,9.81,0s-8,6.17-10.81,4.98c-2.81-1.2-8.64-6.36-19.09-6.49s-18.38,1.16-21.15,1.52
			c-2.77,0.36-9.6-2.59-17.24-1.52s-18.49,5.1-18.49,5.1s1.21,5.85,4.62,8.35c3.42,2.5,3.42,2.5,3.42,2.5S88.09,293.67,85.27,285.23
			z"/>
		<path d="M36.82,221.2c0,0-4.27-5.34-8.55,1.89s4.11,36.16,7.15,42.74c3.04,6.58,5.01,9.53,5.01,9.53s-12.82-15.7-14.79-38.59
			S32.87,212.74,36.82,221.2z"/>
		<path d="M105.04,254.38c0,0,0.88-2.81,4.24-3.63c3.36-0.82,8.52,4.67,10.73,6.22c2.21,1.56,2.21,1.56,2.21,1.56
			s-4.34-3.28-8.19-4.75c-3.85-1.47-6.06,0.55-7.04,1.99c-0.98,1.45-5.65,3-9.34-2.16C97.65,253.61,103.82,257.36,105.04,254.38z"/>
		<path d="M129.87,258.93c0,0,1.57,0.39,5-2.74c4.02-3.67,4.04-3.74,6.67-4.04c2.63-0.3,6.75,3.31,8.26,3.46
			c1.5,0.15-0.45,0.1-0.45,0.1s-1.39,0.05-4.9-0.63c-3.51-0.68-3.81-0.53-7.12,1.28C134.03,258.17,134.38,259.08,129.87,258.93z"/>
		<path d="M40.43,119.64c-1.09,19.97-1.59,36.63-0.59,68.03c0,0,2.15-34.93,7.32-46.89s25.24-41.68,79.02-42.65
			s83.51,21,94.49,31.02s3.88,33.36,4.52,38.65s6.79,12.68,6.46,31.12s0.01,39.76,0.01,39.76s0.74-12.87,4.83-17.49
			c11.12-12.56,12.46-26.02,12.46-26.02l5.99-64.09c0,0,0.18-16.04-1.43-24.13s-1.62-8.09-1.62-8.09s-7.02-15.92-11.33-22.4
			s-15.65-17-18.35-18.35s-8.09-2.43-8.09-2.43l-4.32-5.67h-4.84c0,0-2.99-10.8-7.84-11.74c-4.86-0.94-7.82,1.22-7.82,1.22
			s-11.6-8.63-22.93-11.6s-16-2.97-16-2.97s-4.93-1.04-10.25-1.74c-5.32-0.69-9.04,2.01-9.04,2.01l-8.03-3.78l-5.24,1.77l-6.75-1.77
			l-3.51,1.77c0,0-4.86-0.96-8.09-1.77s-8.09,1.89-7.82,4.59l-2.43-4.73c0,0-22.47,19.87-26.52,28.24l-4.12,0.11
			c0,0-4.66,4.67-7.52,18.66s3.68,26.59,3.68,26.59s-4.2-6.07-6.53-12.6c0,0-4.01,2.8-4.1,17.26c-0.09,14.46-0.09,14.46-0.09,14.46
			l-1.72-7.87C42.28,106.15,40.9,111.17,40.43,119.64z"/>
		<path d="M227.1,275.36c0,0-1.11,3.01,3.11,5.9c2.24,1.54,7.26-0.71,11.39-4.3c3.64-3.16,6.56-7.63,6.56-7.63
			s-3.77,8.22-9.26,12.67c-2.98,2.41-7.61,3.16-9.8,2.15C222.88,281.26,227.1,275.36,227.1,275.36z"/>
		<polygon points="39.39,211.22 39.48,174.04 40.17,190.28 40.43,212.25 		"/>
	</g>
</g>
</svg>
