<?xml version="1.0" encoding="UTF-8"?><svg id="Layer_1" xmlns="http://www.w3.org/2000/svg" viewBox="0 0 82.2 82"><defs><style>.cls-1{fill:#fff;}</style></defs><g id="peDFSW"><g><path class="cls-1" d="M42.4,82H.2v-1.3H11.1c1.1,0,1.4-.2,1.4-1.4v-8.6c-.1-.8-.3-1-1.1-1H.2v-16.2c1,0,1.2,.2,1.3,1.2v11.1c0,1.2,.2,1.4,1.4,1.4H11.2c1.1,0,1.3-.3,1.3-1.3V29.8c-.1-.5-.2-.7-.7-.8H3.9c-.6,0-1.1,0-1.7,.1-.4,0-.6,.3-.7,.7v12c-.1,.5-.3,.8-.8,.8H.3V12.8H25.1c1,0,1.2-.3,1.2-1.3V3c0-.2,0-.4-.1-.6-.1-.4-.3-.6-.7-.7H.4V.4H42.6c0,1-.2,1.2-1.2,1.3h-11.4c-.9,0-1,.4-1.1,1.1V11.7c0,.7,.3,.9,1,1h11.8c.5,0,.7,.3,.8,.7v1.1c0,.4-.3,.6-.7,.7-.3,0-.6,.1-.9,.1h-11c-.7,.1-1,.3-1,1.1v8.8c0,.8,.3,1,1.1,1.1h11.1c1.2,0,1.4,.2,1.4,1.4v11.4c0,.5,.3,.7,.8,.8h24.7c.3,0,.7,0,1,.1,.4,.1,.6,.3,.7,.7v1c0,.5-.3,.7-.7,.8h-11.5c-1.1,0-1.3,.3-1.3,1.3v8.3c0,1.1,.2,1.4,1.3,1.4h11.5c.5,0,.7,.3,.8,.8,0,.3,.1,.7,.1,1v10.4c0,1.1,.2,1.4,1.4,1.4h8.7c.7,0,.9-.3,1-.9v-11.9c.1-.5,.3-.7,.8-.8h.4v16.2h-11.2c-.8,0-1.1,.3-1.1,1.1v11.2h-16.3v-11c0-1.1-.2-1.3-1.3-1.3H30.2c-.2,0-.4,0-.7,.1-.3,.1-.5,.3-.6,.6,0,.3-.1,.5-.1,.8v8.5c0,.7,.2,.9,.9,1h11.4c1.1,0,1.3,.3,1.3,1.3Zm-13.6-34h0v17.7c0,1.1,.2,1.3,1.3,1.3h8.4c.2,0,.4,0,.7-.1s.5-.3,.6-.6c0-.2,.1-.4,.1-.7v-11.5c.1-.5,.3-.7,.8-.8h11.8c.6,0,.9-.3,.9-.9v-8.7c0-1.2-.3-1.4-1.4-1.4h-10.9c-1.1,0-1.3-.2-1.3-1.3v-10.9c0-1.1-.3-1.4-1.3-1.4h-6.8c-.7,0-1.5,0-2.2,.1-.4,0-.6,.2-.7,.7v2.6c0,5.4,0,10.6,0,15.9Zm38.3,20.4h0v-11.6c-.1-.5-.2-.7-.8-.7h-22.5c-.2,0-.4,0-.7,.1-.4,.1-.6,.3-.7,.7v9.5c0,.5,.2,.7,.7,.8h11.5c1.1,0,1.3,.2,1.3,1.4v10.9c0,.2,0,.5,.1,.7,.1,.3,.3,.5,.6,.6,.2,0,.4,.1,.6,.1h8.4c1.1,0,1.3-.3,1.3-1.3,.2-3.9,.2-7.6,.2-11.2Zm-41-6.8v-18.5c-.1-.4-.3-.6-.7-.7h-9.3c-.5,0-.8,.2-.8,.7-.1,.6-.1,1.2-.1,1.8v34.3c0,.2,0,.5,.1,.7,.1,.3,.3,.6,.6,.6,.2,0,.4,.1,.6,.1h8.4c1.1,0,1.3-.3,1.3-1.3-.1-5.8-.1-11.8-.1-17.7ZM13.8,26.2h10.9c1.2,0,1.4-.2,1.4-1.4v-8.2c0-1.2-.2-1.4-1.4-1.4H2.5c-.7,.1-.9,.3-1,1v8.6c0,.2,0,.5,.1,.7,.1,.4,.2,.6,.6,.7,.2,0,.5,.1,.7,.1,3.6-.1,7.3-.1,10.9-.1Zm12.3,8.1v-4.2c0-1.1-.2-1.3-1.3-1.3h-8.7c-.6,0-.8,.2-.9,.9v8.6c0,.3,0,.5,.1,.8,.1,.4,.3,.6,.6,.7,.2,0,.3,.1,.5,.1h8.9c.6-.1,.8-.3,.9-.9v-.4c-.1-1.5-.1-2.9-.1-4.3Z"/><path class="cls-1" d="M73.9,.2h2.6V3.7c0,.4,0,.9,.1,1.3,0,.4,.2,.6,.6,.7,.2,0,.3,.1,.5,.1h4.4v2.6h-4.6c-.6,.1-.8,.3-.8,.8,0,.3-.1,.5-.1,.8v10.7c0,1-.2,1.3-1.3,1.3h-24.9c-.8,.1-1,.3-1,1.1v8.9c0,.7,.3,1,1,1h25.2c.9,0,1.1,.3,1.2,1.2v11.6c.1,.6,.3,.7,.8,.8h4.6v2.6h-4.4c-.8,0-1,.2-1.1,1v11.4c0,1-.3,1.2-1.3,1.2-1.1,0-1.3-.2-1.3-1.3v-10.9c0-1.2-.2-1.4-1.4-1.4h-10.5c-.3,0-.7,0-1-.1-.4,0-.7-.3-.7-.7v-1.2c0-.5,.3-.7,.7-.7,.3,0,.6-.1,.9-.1h10.6c1,0,1.2-.3,1.3-1.2v-8.7c-.1-.8-.3-1.1-1.2-1.1h-24.5c-.3,0-.6,0-.9-.1-.4-.1-.6-.3-.7-.7,0-.3-.1-.7-.1-1v-11c-.1-.5-.3-.7-.8-.7h-11c-.4,0-.7,0-1.1-.1-.4,0-.6-.3-.6-.6,0-.4-.1-.7,0-1.1,0-.5,.2-.7,.8-.8h11.6c1.1,0,1.3-.3,1.3-1.3V9.6c0-1.1-.2-1.3-1.3-1.3h-10.5c-.3,0-.6,0-1-.1-.5,0-.7-.3-.8-.7v-.8c0-.6,.2-.9,.9-1h11.4c.2,0,.4,0,.6-.1,.4-.1,.6-.3,.6-.6,0-.2,.1-.4,.1-.5V.2h2.6V17.9c0,1.1,.2,1.4,1.4,1.4h8.2c1.1,0,1.4-.3,1.4-1.4V7.3c0-.3,0-.6,.1-.9,.1-.4,.3-.6,.7-.7h.5c1.1,0,1.4,.2,1.4,1.3v11.4c0,.6,.2,.8,.8,.8,.7,.1,1.4,0,2.1,0h6.9c.9,0,1.2-.3,1.2-1.2V.5c-.2,0-.2-.1-.2-.3Z"/><path class="cls-1" d="M43.2,.2h2.6V4c0,.6-.3,.9-.9,.9h-11.8c-.6,0-.9,.3-.9,.9v2.5c0,.6,.3,.8,.9,.8h11.8c.6,0,.9,.3,.9,.9v7.4c0,.8-.3,1.1-1.1,1.1h-11.7c-.7,.1-.9,.3-.9,1v1.8c0,1.2,.2,1.4,1.4,1.4h11.4c.5,.1,.8,.3,.8,.8v11.8c0,.7,.3,.9,.9,1h25c1.1,0,1.3,.2,1.3,1.3v7.2c-.1,.5-.3,.8-.9,.8h-11.9c-.5,0-.8,.3-.8,.7v2.7c0,.5,.3,.7,.8,.7h12c.5,0,.8,.3,.8,.8,0,.6,.1,1.2,.1,1.8v9.6c0,.2,0,.5,.1,.7,.1,.4,.3,.6,.6,.6h2.9c.3,0,.5-.2,.6-.6,0-.3,.1-.6,.1-.8v-11.1c0-.7,.3-.9,.9-1h3.7v2.6c-.5,0-1,0-1.4,.1-.4,0-.6,.3-.6,.7,0,.3-.1,.6-.1,.9v11c0,.6-.3,.9-.9,.9h-7.6c-.6,0-.8-.3-.9-.9v-11.3c0-1.2-.2-1.4-1.4-1.4h-11.2c-.8-.1-1-.3-1-1.1v-7c0-1.1,.2-1.3,1.3-1.3h11.5c.5-.1,.8-.3,.8-.9v-2.5c0-.5-.3-.8-.8-.8h-25.2c-1,0-1.2-.3-1.2-1.2v-11.5c-.1-.6-.3-.9-.9-.9h-11.6c-.7,0-.9-.3-1-.9v-7.4c0-.8,.3-1,1.1-1h11c.3,0,.5,0,.8-.1,.4,0,.7-.3,.7-.6v-2.9c0-.3-.3-.6-.6-.6-.2,0-.5-.1-.8-.1h-11.3c-.6-.1-.8-.3-.8-.9V3.1c0-.7,.3-.9,1-1h11.2c.3,0,.5,0,.8-.1,.4-.1,.6-.3,.6-.6-.2-.2-.2-.7-.2-1.2Z"/><path class="cls-1" d="M82,43.2v2.6h-3.8c-.7,0-.9-.3-.9-1v-11.2c0-1.2-.2-1.4-1.4-1.4h-24.6c-.9,0-1.2-.2-1.2-1.1v-7.3c0-.7,.3-1,1-1h25c.2,0,.4,0,.7-.1,.3-.1,.6-.3,.6-.6s.1-.6,.1-.9V10.1c0-.7,.3-.9,.9-1h3.7v2.6h-1.2c-.6,0-.8,.3-.9,.9v11.7c0,.6-.3,.9-.9,.9h-25.3c-.7,0-.9,.3-1,.9v2.1c0,.9,.3,1.1,1.1,1.1h25c.8,0,1.1,.3,1.1,1.1v11.7c.1,.4,.2,.7,.7,.7,.4,.4,.9,.4,1.3,.4Z"/><path class="cls-1" d="M.2,45.9v-2.6H.8c1.3,0,1.5-.2,1.5-1.5v-11.3c.1-.5,.3-.7,.8-.8h7.4c1,0,1.2,.3,1.2,1.2v34.6c-.1,.7-.3,.9-1,.9H3.3c-.7,0-1-.3-1-1v-11.2c0-.2,0-.5-.1-.7-.1-.4-.3-.6-.6-.6-.5,0-.9,0-1.4-.1v-2.6H3.9c.6,0,.9,.3,.9,.9v11.8c0,.7,.3,.9,1,1h1.8c1.2,0,1.4-.2,1.4-1.4v-29.1c0-.6-.3-.9-.9-.9h-2.5c-.3-.2-.6,0-.6,.3s-.1,.6-.1,.8v11.2c0,.6-.3,.9-.9,.9H1.9c-.6,.1-1.2,.2-1.7,.2Z"/><path class="cls-1" d="M70.5,.2h2.6V17.4c-.1,.8-.3,1-1.1,1h-6.9c-1.1,0-1.4-.3-1.4-1.3V5.5c-.1-.5-.3-.7-.8-.7h-2.5c-.5,0-.7,.3-.8,.8v11.6c0,.8-.3,1.1-1.1,1.1h-7.3c-.6,0-.9-.3-.9-.9V0h2.6V14.3c0,.2,0,.4,.1,.7,.1,.5,.3,.7,.8,.7h2.6c.4,0,.7-.3,.7-.7,0-.2,.1-.5,.1-.7V3.4c0-1,.3-1.3,1.3-1.3h7.4c.5,.1,.8,.3,.8,.9V14.9c.1,.5,.3,.8,.8,.8h2.4c.7,0,.9-.3,.9-1V.3c-.3,.2-.3,.1-.3-.1Z"/><path d="M43.2,.2c0,.5,0,.9-.1,1.4,0,.4-.3,.6-.6,.6-.3,.1-.5,.1-.8,.1h-11.2c-.7,0-1,.3-1,1v7.5c0,.6,.3,.8,.8,.9h11.3c.3,0,.5,0,.8,.1,.4,0,.6,.3,.6,.6v2.9c0,.3-.3,.5-.7,.6-.3,0-.5,0-.8,.1h-11c-.8,0-1.1,.2-1.1,1v7.4c0,.7,.3,.9,1,.9h11.6c.6,0,.9,.3,.9,.9v11.5c0,.9,.3,1.2,1.2,1.2h25.2c.5,0,.8,.3,.8,.8v2.5c0,.5-.3,.8-.8,.9h-11.5c-1.1,0-1.3,.2-1.3,1.3v7c0,.8,.2,1,1,1.1h11.2c1.2,0,1.4,.2,1.4,1.4v11.3c0,.6,.3,.8,.9,.9h7.6c.6,0,.8-.3,.9-.9v-11c0-.3,0-.6,.1-.9,0-.4,.2-.6,.6-.7,.5-.1,1,0,1.4-.1v.8h-.4c-.5,0-.8,.2-.8,.8v11.9c-.1,.7-.3,.9-1,.9h-8.7c-1.1,0-1.4-.2-1.4-1.4v-10.4c0-.3,0-.7-.1-1,0-.5-.3-.8-.8-.8h-11.5c-1.1,0-1.3-.3-1.3-1.4v-8.3c0-1.1,.3-1.3,1.3-1.3h11.5c.5-.1,.7-.3,.7-.8v-1c0-.4-.2-.7-.7-.7-.3,0-.7-.1-1-.1h-24.7c-.5-.1-.7-.3-.8-.8v-11.4c0-1.1-.2-1.4-1.4-1.4h-11.1c-.8,0-1-.3-1.1-1.1v-8.8c0-.8,.2-1,1-1.1h11c.3,0,.6,0,.9-.1,.4-.1,.6-.3,.7-.7v-1.1c0-.4-.3-.7-.8-.7h-11.8c-.7,0-.9-.3-1-1V2.6c0-.7,.2-1.1,1.1-1.1h11.4c1,0,1.2-.3,1.2-1.3,.6,0,.9,0,1.2,0Z"/><path d="M82,50h-3.7c-.7,0-.9,.3-.9,1v11.1c0,.3,0,.6-.1,.8-.1,.3-.3,.6-.6,.6h-2.9c-.3,0-.6-.3-.6-.6,0-.2-.1-.5-.1-.7v-9.6c0-.6,0-1.2-.1-1.8,0-.5-.3-.7-.8-.8h-12c-.5,0-.8-.3-.8-.7v-2.7c0-.5,.3-.7,.8-.7h11.9c.6,0,.8-.3,.9-.8v-7.2c0-1.1-.2-1.3-1.3-1.3h-25c-.7-.1-.9-.3-.9-1v-11.8c0-.5-.3-.8-.8-.8h-11.4c-1.2,0-1.4-.2-1.4-1.4v-1.8c0-.7,.2-.9,.9-1h11.7c.8,0,1.1-.2,1.1-1.1v-7.4c0-.6-.3-.9-.9-.9h-11.8c-.6,0-.9-.3-.9-.8v-2.5c0-.6,.3-.8,.9-.9h11.8c.6,0,.9-.3,.9-.9V.5h.8V4.8c0,.2,0,.4-.1,.5-.1,.4-.3,.6-.6,.6-.2,0-.4,.1-.6,.1h-11.4c-.6,.1-.9,.3-.9,1v.8c0,.2,.2,.5,.7,.5,.3,0,.6,.1,1,.1h10.5c1.1,0,1.3,.2,1.3,1.3v8.4c0,1.1-.3,1.3-1.3,1.3h-11.6c-.5,.1-.7,.3-.8,.8v1.1c0,.3,.3,.6,.6,.6,.4,0,.7,.1,1.1,.1h11c.5,0,.7,.2,.8,.7s0,1,0,1.5v9.5c0,.3,0,.7,.1,1,0,.4,.3,.6,.7,.7,.3,0,.6,.1,.9,.1h24.5c.9,0,1.1,.3,1.2,1.1v8.7c0,1-.3,1.2-1.3,1.2h-10.6c-.3,0-.6,0-.9,.1-.5,.1-.7,.2-.7,.7v1.2c0,.4,.3,.6,.7,.7,.3,0,.7,.1,1,.1h10.5c1.2,0,1.4,.2,1.4,1.4v10.9c0,1.1,.2,1.3,1.3,1.3,1,0,1.3-.3,1.3-1.2v-11.4c0-.8,.3-1,1.1-1h4.4v.7Z"/><path class="cls-1" d="M.2,11.8v-2.6H21.7c.8,0,1-.3,1-1v-1.8c0-1.1-.2-1.4-1.4-1.4H.1V2.4H24.2c.7,0,1,.3,1,1v7.4c0,.7-.3,1-1.1,1H.2Z"/><path class="cls-1" d="M52.6,82h-2.6v-7.5c0-1.2-.2-1.4-1.4-1.4h-15.6c-.5,.1-.8,.4-.9,.9v.7c0,.6,0,1.3,.1,1.9,0,.3,.2,.5,.6,.6,.3,0,.6,.1,.9,.1h11.2c.6,0,.9,.3,.9,.9v3.8h-2.6c0-.5,0-1-.1-1.4,0-.4-.3-.6-.7-.6-.3,0-.5,0-.8-.1h-11.1c-.6,0-.9-.3-.9-.9v-7.5c0-.6,.3-.9,.9-.9h21.1c.8,0,1,.2,1.1,1.1v3.5c0,2.2-.1,4.5-.1,6.8Z"/><path class="cls-1" d="M82,12.6v29.8h-.5c-.5-.1-.7-.2-.8-.8v-11.5c0-1-.3-1.3-1.3-1.3h-23.3c-.6,0-1.3,0-1.9-.1-.4,0-.7-.2-.7-.6v-1.2c.1-.4,.3-.6,.7-.6,.3,0,.6-.1,.9-.1h24.5c.7,0,1-.2,1-.9,.1-.9,0-1.8,0-2.7V13.9c.1-1.1,.4-1.4,1.4-1.3h0Z"/><path class="cls-1" d="M.2,49.3v-2.6H4.4c1,0,1.3-.3,1.3-1.3v-10.5c0-.3,0-.6,.1-1,.1-.5,.3-.7,.8-.8h1.1c.4,.1,.6,.3,.7,.7,0,.3,.1,.7,.1,1-.2,8.8-.2,17.5-.2,26.3,0,.3,0,.6-.1,1,0,.4-.2,.7-.7,.7h-1.2c-.4,0-.6-.3-.7-.7,0-.3-.1-.7-.1-1v-10.7c0-.9-.3-1.2-1.2-1.2-1.2,.1-2.7,.1-4.1,.1Z"/><path class="cls-1" d="M53.4,.2h16.3V12.6c0,.6,0,1.1-.1,1.7,0,.5-.2,.7-.8,.8h-1.1c-.4,0-.6-.3-.7-.7,0-.3-.1-.6-.1-.9V2.9c0-.2,0-.4-.1-.6-.1-.4-.3-.6-.7-.7h-9.3c-.7,.1-.9,.3-.9,.9V13.9c0,1-.3,1.3-1.3,1.3s-1.3-.2-1.3-1.2V.6c.1-.1,.1-.2,.1-.4Z"/><path d="M82,9.1h-3.7c-.7,0-.9,.3-.9,1v11.1c0,.3,0,.6-.1,.9s-.3,.5-.6,.6c-.2,0-.4,.1-.7,.1h-25c-.7,.1-1,.3-1,1v7.3c0,.9,.3,1.1,1.2,1.1h24.6c1.2,0,1.4,.2,1.4,1.4v11.2c0,.6,.3,.9,.9,1h3.8v.8h-4.6c-.6-.1-.8-.2-.8-.8v-11.6c0-.9-.3-1.2-1.2-1.2h-25.2c-.7,0-1-.3-1-1v-8.9c0-.8,.2-1,1-1.1h24.9c1,0,1.3-.2,1.3-1.3V10c0-.3,0-.5,.1-.8,.1-.6,.2-.8,.8-.8h4.6c.2,.2,.2,.5,.2,.7Z"/><path class="cls-1" d="M.2,73.1v-2.6H10.9c.5,0,.7,.3,.8,.8v7.8c-.1,.6-.3,.8-.9,.8H.2v-2.6h7.9c.7,0,.9-.3,.9-.9v-2.2c0-.7-.3-1-1-1h-1.9c-1.9-.1-3.9-.1-5.9-.1Z"/><path d="M50,.2V17.6c0,.6,.3,.9,.9,.9h7.3c.8,0,1.1-.3,1.1-1.1V5.8c0-.5,.3-.7,.8-.8h2.5c.5,0,.7,.2,.8,.7v11.6c0,1.1,.3,1.4,1.4,1.3h6.9c.8,0,1-.2,1.1-1V.4h.8V18.3c0,.9-.3,1.2-1.2,1.2h-9c-.5,0-.8-.3-.8-.8V7.3c0-1.1-.3-1.3-1.4-1.3h-.5c-.4,.1-.6,.3-.7,.7,.3,.1,.3,.4,.3,.7v10.6c0,1.1-.3,1.4-1.4,1.4h-8.2c-1.1,0-1.4-.2-1.4-1.4V.3c.2-.1,.4-.1,.7-.1Z"/><path d="M82,12.6h0c-1,0-1.3,.2-1.3,1.2v11.4c0,.7-.3,.9-1,.9h-24.5c-.3,0-.6,0-.9,.1-.4,0-.7,.2-.7,.6v1.2c.1,.4,.3,.6,.7,.6,.6,0,1.3,.1,1.9,.1h23.3c1,0,1.3,.3,1.3,1.3v11.5c.1,.5,.3,.7,.8,.8h.5v.8c-.5,0-.9,0-1.4-.1-.4-.1-.6-.3-.7-.7v-11.7c0-.8-.2-1.1-1.1-1.1h-25c-.9,0-1.1-.3-1.1-1.1v-2.1c0-.7,.3-.9,1-.9h25.3c.6,0,.9-.3,.9-.9V12.8c.1-.6,.3-.8,.9-.9h1.2c-.1,.1-.1,.4-.1,.7Z"/><path d="M.2,52.7c.5,0,.9,0,1.4,.1,.4,0,.6,.3,.6,.6,0,.2,.1,.5,.1,.7v11.2c.1,.7,.3,1,1,1h7.4c.7,0,.9-.2,1-.9V30.8c0-1-.2-1.2-1.2-1.2H3.1c-.5,0-.8,.2-.8,.8v11.3c0,1.3-.2,1.5-1.5,1.5H.2v-.8h.4c.5,0,.8-.3,.8-.8v-12c0-.4,.2-.7,.7-.7,.6-.1,1.1-.1,1.7-.1h7.9c.5,.1,.6,.3,.7,.8v36.1c0,1.1-.2,1.3-1.3,1.3H2.8c-1.2,0-1.4-.2-1.4-1.4v-11.1c0-1-.3-1.2-1.3-1.2,.1-.1,.1-.4,.1-.6Z"/><path d="M53.4,.2V14c0,1,.3,1.2,1.3,1.2s1.3-.3,1.3-1.3V2.5c0-.7,.3-.9,.9-.9h9.3c.4,.1,.6,.2,.7,.7,0,.2,.1,.4,.1,.6V13.5c0,.3,0,.6,.1,.9,.1,.4,.2,.7,.7,.7h1.1c.5-.1,.7-.3,.8-.8,0-.6,.1-1.1,.1-1.7V.2h.8V14.9c0,.7-.2,.9-.9,1h-2.4c-.5,0-.8-.3-.8-.8V3.2c0-.5-.3-.8-.8-.9h-7.4c-1,0-1.3,.2-1.3,1.3V14.5c0,.2,0,.5-.1,.7-.1,.4-.3,.7-.7,.7h-2.6c-.5,0-.7-.2-.8-.7,0-.2-.1-.4-.1-.7V.2c.2,0,.4,0,.7,0Z"/><path d="M.2,49.3H4.5c.9,0,1.2,.3,1.2,1.2v10.7c0,.3,0,.7,.1,1,0,.4,.3,.7,.7,.7h1.2c.4,0,.6-.3,.7-.7,0-.3,.1-.6,.1-1-.2-8.9-.2-17.6-.2-26.4,0-.3,0-.7-.1-1,0-.4-.3-.7-.7-.7s-.7-.1-1.1,0c-.5,0-.7,.3-.8,.8,0,.3-.1,.6-.1,1v10.5c0,1.1-.2,1.3-1.3,1.3H0v-.8H3.7c.6,0,.9-.3,.9-.9v-11.2c0-.3,0-.6,.1-.8,.3-.5,.6-.7,.9-.7h2.5c.6,0,.9,.3,.9,.9v29.1c0,1.2-.2,1.4-1.4,1.4h-1.8c-.7,0-.9-.3-1-1v-11.8c0-.6-.3-.9-.9-.9H.2c0-.2,0-.5,0-.7Z"/><path class="cls-1" d="M49.2,82h-2.6v-4.5c0-.7-.2-1-.9-1h-11.7c-.6,0-.9-.2-1-.7v-1.2c.1-.4,.3-.6,.8-.7h14.6c.5,0,.7,.3,.8,.8,0,.3,.1,.7,.1,1-.1,2.1-.1,4.2-.1,6.3Z"/><path class="cls-1" d="M.2,8.4v-2.6H20.2c.3,0,.6,0,1,.1,.4,0,.7,.3,.7,.7v1.1c-.1,.3-.3,.6-.8,.6-.3,0-.6,.1-1,.1H.2Z"/><path class="cls-1" d="M82,70.5v2.6h-7.7c-1,0-1.2,.3-1.2,1.2h0v7.7h-2.6v-10.6c0-.6,.3-.8,.9-.9h10.3c.1,0,.2,0,.3,0Z"/><path d="M.2,11.8H24.2c.8,0,1.1-.3,1.1-1V3.4c0-.7-.3-1-1-1h-.8c-7.8-.1-15.5-.1-23.3-.1v-.8H25.3c.4,.1,.6,.2,.7,.7,0,.2,.1,.4,.1,.6V11.3c0,1-.2,1.2-1.2,1.3H.1c.1-.3,.1-.6,.1-.8Z"/><path d="M52.6,82v-10.4c-.1-.8-.2-1.1-1.1-1.1H30.4c-.6,0-.9,.3-.9,.9v7.5c0,.6,.3,.9,.9,.9h11.1c.3,0,.5,0,.8,.1,.4,0,.6,.2,.7,.6,.1,.5,0,1,.1,1.4h-.8c0-1-.2-1.3-1.3-1.3h-11.4c-.7-.1-.9-.3-.9-1v-8.5c0-.3,0-.5,.1-.8,0-.3,.3-.5,.6-.6,.2,0,.4-.1,.7-.1h22.1c1,0,1.3,.2,1.3,1.3v11c-.4,.1-.6,.1-.9,.1Z"/><path d="M49.2,82v-6.3c0-.3,0-.7-.1-1,0-.5-.3-.7-.8-.8h-14.6c-.5,0-.7,.2-.8,.7,0,.4-.1,.8,0,1.2,.1,.5,.4,.7,1,.7h11.7c.7,.1,.9,.3,.9,1v4.5h-.8v-3.8c0-.6-.3-.9-.9-.9h-11.2c-.3,0-.6,0-.9-.1-.3-.1-.5-.3-.6-.6,0-.6,0-1.3-.1-1.9v-.7c0-.5,.3-.8,.9-.9h15.6c1.2,0,1.4,.2,1.4,1.4v7.5c-.2,0-.4,0-.7,0Z"/><path d="M.2,8.4H20.2c.3,0,.6,0,1-.1,.5,0,.7-.3,.8-.7v-1.1c0-.4-.3-.6-.7-.7-.3,0-.6-.1-1-.1H.3v-.8H21.5c1.1,0,1.4,.2,1.4,1.4v1.8c0,.8-.3,1-1,1H.4c-.2-.2-.2-.5-.2-.7Z"/><path class="cls-1" d="M76.5,82h-2.6v-7.2c0-.6,.3-.9,.9-.9h7.2v2.6h-4.2c-1.1,0-1.4,.3-1.4,1.4,.1,1.4,.1,2.8,.1,4.1Z"/><path d="M.2,79.9H10.8c.6-.1,.8-.3,.9-.8v-7.8c-.1-.5-.3-.7-.8-.8H.2v-.8H11.4c.8,0,1,.3,1.1,1v8.6c0,1.1-.3,1.4-1.4,1.4H.2c0-.3,0-.5,0-.8Z"/><path class="cls-1" d="M.2,76.5v-2.6H7.1c1,0,1.2,.2,1.2,1.2v.1c0,1-.3,1.3-1.3,1.3H.2Z"/><path d="M82,70.5h-10.7c-.6,0-.8,.3-.9,.9v10.6h-.8v-11.2c0-.8,.3-1.1,1.1-1.1h11.2c.1,.3,.1,.5,.1,.8Z"/><path class="cls-1" d="M77.3,.2h2.6c0,.4,0,.9,.1,1.3,0,.5,.2,.7,.7,.7s.9,0,1.4,.1v2.6h-3.5c-.8,0-1.3-.3-1.3-1,0-1.2,0-2.4,0-3.7Z"/><path class="cls-1" d="M79.9,82h-2.6v-3.8c0-.6,.3-.9,.9-.9h3.8v2.6c-.4,0-.9,0-1.3,.1-.5,0-.8,.3-.8,.8v1.2Z"/><path d="M.2,76.5H7c1,0,1.3-.3,1.3-1.3v-.1c0-.9-.3-1.2-1.2-1.2H.2v-.8h7.9c.7,0,1,.3,1,1v2.2c0,.7-.3,.9-.9,.9H.3c-.1-.2-.1-.4-.1-.7Z"/><path d="M82,73.9h-7.2c-.6,0-.9,.3-.9,.9v7.2h-.8v-7.7h0c0-1,.3-1.2,1.2-1.2h7.7c0,.3,0,.5,0,.8Z"/><path d="M82,77.3h-3.8c-.6,0-.9,.3-.9,.9v3.8h-.8v-4.1c0-1.1,.3-1.4,1.4-1.4h4.2c-.1,.3-.1,.5-.1,.8Z"/><path d="M77.3,.2V3.9c0,.7,.4,1,1.3,1h3.5v.8h-4.4c-.2,0-.3,0-.5-.1-.4-.1-.6-.3-.6-.7s-.1-.9-.1-1.3V.1c.3,.1,.6,.1,.8,.1Z"/><path d="M79.9,82c0-.4,0-.9,.1-1.3,0-.5,.3-.8,.8-.8,.4,0,.9,0,1.3-.1v.8c-1.1,0-1.3,.2-1.3,1.3-.3,.1-.6,.1-.9,.1Z"/><path d="M82,2.3c-.5,0-.9,0-1.4-.1-.5,0-.7-.3-.7-.7s0-.9-.1-1.3h.8c0,1,.3,1.3,1.3,1.3,.1,.3,.1,.5,.1,.8Z"/><path class="cls-1" d="M80.7,82c0-1.1,.2-1.3,1.3-1.3v1.3h-1.3Z"/><path class="cls-1" d="M82,1.5c-1,0-1.3-.2-1.3-1.3h1.3V1.5Z"/><path d="M28.8,48V29.6c0-.5,.2-.7,.7-.7,.7-.1,1.5-.1,2.2-.1h6.8c1.1,0,1.3,.3,1.3,1.4v10.9c0,1.1,.2,1.3,1.3,1.3h10.9c1.2,0,1.4,.2,1.4,1.4v8.7c0,.6-.3,.9-.9,.9h-11.8c-.5,0-.7,.3-.8,.8v11.5c0,.2,0,.4-.1,.7-.1,.3-.2,.6-.6,.6-.2,0-.4,.1-.7,.1h-8.4c-1.1,0-1.3-.2-1.3-1.3v-15.2c0-.9,0-1.7,0-2.6h0Zm.7,.2v17.2c0,.6,.3,.9,.9,.9h7.5c.7,0,1-.3,1-1v-11.3c0-.2,0-.4,.1-.6,.1-.4,.3-.6,.6-.6,.2,0,.5-.1,.8-.1h10.9c1,0,1.3-.2,1.3-1.3v-6.8c0-1.1-.2-1.3-1.3-1.3h-10.9c-.2,0-.5,0-.7-.1-.4-.1-.6-.3-.6-.7,0-.3-.1-.5-.1-.8v-11.1c0-.6-.3-.9-.9-.9h-7.6c-.5,0-.8,.3-.8,.8v1.1c-.2,5.5-.2,11.1-.2,16.6Z"/><path d="M67.1,68.4v11c0,1.1-.3,1.3-1.3,1.3h-8.4c-.2,0-.4,0-.6-.1-.3-.1-.5-.3-.6-.6,0-.2-.1-.5-.1-.7v-10.9c0-1.1-.2-1.4-1.3-1.4h-11.5c-.5-.1-.7-.3-.7-.8v-9.5c.1-.4,.3-.6,.7-.7,.2,0,.4-.1,.7-.1h22.5c.5,.1,.7,.2,.8,.7v.6c-.2,3.9-.2,7.5-.2,11.2h0Zm-.8,0h0v-10.7c0-.5-.2-.7-.7-.8h-21c-1.1,0-1.3,.2-1.3,1.3v6.6c0,.3,0,.6,.1,.8,0,.3,.2,.6,.6,.6,.4,.1,.8,.1,1.2,.1h11c.5,0,.8,.3,.8,.8v11.7c0,.9,.3,1.1,1.2,1.1h7.2c.6,0,1-.3,1-.8v-.9c-.1-3.3-.1-6.5-.1-9.8Z"/><path d="M26.1,61.6v17.8c0,1.1-.3,1.3-1.3,1.3h-8.4c-.2,0-.4,0-.6-.1-.3-.1-.6-.3-.6-.6,0-.2-.1-.5-.1-.7V45c0-.6,0-1.2,.1-1.8,0-.5,.3-.7,.8-.7h9.3c.4,.1,.7,.2,.7,.7v.7c.1,5.8,.1,11.8,.1,17.7Zm-.7,0v-17.3c0-.8-.3-1.1-1.1-1.1h-7.5c-.5,.1-.8,.3-.8,.9v34.6c0,.9,.3,1.2,1.1,1.2h7.3c.7,0,1-.3,1-1v-.9c0-5.4,0-10.9,0-16.4Z"/><path d="M13.8,26.2H2.9c-.2,0-.5,0-.7-.1-.4-.1-.6-.3-.6-.7,0-.2-.1-.5-.1-.7v-8.6c.1-.7,.2-.9,1-1H24.7c1.2,0,1.4,.2,1.4,1.4v8.2c0,1.2-.2,1.4-1.4,1.4-3.6,.1-7.3,.1-10.9,.1Zm0-.8h10.6c.7,0,1-.3,1-1v-7.6c0-.5-.2-.7-.7-.8H3.5c-.7,0-1,.3-1.1,1v6.8c0,.3,0,.6,.1,.9,0,.4,.3,.6,.7,.7,.3,0,.7,.1,1,.1,3.1-.1,6.3-.1,9.6-.1Z"/><path d="M26.1,34.3v4.6c-.1,.6-.2,.8-.9,.9h-8.9c-.2,0-.3,0-.5-.1-.4-.1-.6-.3-.6-.7,0-.3-.1-.5-.1-.8v-8.6c.1-.6,.3-.8,.9-.9h8.7c1.1,0,1.3,.2,1.3,1.3,.1,1.5,.1,2.9,.1,4.3Zm-.8,0h0v-3.7c0-.7-.3-1-.9-1h-7.4c-.8,0-1,.3-1,1v7.3c0,.7,.3,1,1,1h7.3c.7,0,1-.3,1-1v-3.6Z"/><path class="cls-1" d="M29.5,48.2V30.5c0-.5,.3-.8,.8-.8h7.6c.6,0,.9,.3,.9,.9v11.1c0,.3,0,.5,.1,.8,0,.4,.2,.6,.6,.7,.2,0,.5,.1,.7,.1h10.9c1.1,0,1.3,.2,1.3,1.3v6.8c0,1-.2,1.3-1.3,1.3h-10.9c-.3,0-.5,0-.8,.1-.4,.1-.6,.3-.6,.6,0,.2-.1,.4-.1,.6v11.3c0,.7-.3,1-1,1h-7.5c-.6,0-.9-.3-.9-.9v-11.3c.2-1.9,.2-3.9,.2-5.9Zm2.7-.3h0v14.3c0,.2,0,.5,.1,.7,0,.4,.3,.6,.6,.6h2.9c.4,0,.6-.3,.6-.7v-11.9c0-.6,.3-.9,.9-.9h11.7c.6,0,.9-.3,.9-.9v-2.2c0-.7-.3-1-1-1h-11.6c-.8,0-1-.3-1-1v-11.6c0-.7-.3-.9-1-.9h-2.1c-.1,0-.3,0-.4,.1-.3,.1-.5,.3-.6,.6,0,.3-.1,.5-.1,.8,.1,4.5,.1,9.3,.1,14Z"/><path class="cls-1" d="M66.3,68.4v10.7c-.1,.6-.4,.8-1,.8h-7.2c-.9,0-1.2-.3-1.2-1.1v-11.7c0-.5-.3-.8-.8-.8h-11c-.4,0-.8,0-1.2-.1-.3,0-.5-.3-.6-.6,0-.3-.1-.6-.1-.8v-6.6c0-1.1,.2-1.3,1.3-1.3h21c.5,.1,.7,.3,.7,.8v.9c.1,3.3,.1,6.5,.1,9.8h0Zm-2.6,0v-7.9c0-.7-.2-.9-.9-1h-16.1c-.5,0-.8,.3-.8,.8v2.5c0,.5,.3,.7,.8,.8h11.2c.3,0,.7,0,1,.1,.3,0,.6,.3,.6,.6,0,.4,.1,.7,.1,1.1v11c0,.5,.3,.7,.7,.7h2.7c.4,0,.6-.2,.7-.7,0-.2,.1-.5,.1-.7-.1-2.3-.1-4.8-.1-7.3Z"/><path class="cls-1" d="M25.4,61.6v17.4c0,.7-.3,1-1,1h-7.3c-.9,0-1.1-.3-1.1-1.2V44.2c0-.5,.3-.8,.8-.9h7.5c.8,0,1.1,.3,1.1,1.1v17.2Zm-2.7,0h0v-15c-.1-.5-.3-.8-.9-.8h-2.1c-.9,0-1.1,.2-1.2,1.1v28.5c0,.3,0,.7,.1,1,0,.4,.3,.7,.7,.7h2.7c.4,0,.6-.3,.7-.7,0-.2,.1-.5,.1-.8-.1-4.5-.1-9.3-.1-14Z"/><path class="cls-1" d="M13.8,25.4H4c-.3,0-.7,0-1-.1-.4,0-.6-.3-.7-.7,0-.2,0-.5,0-.8v-6.8c.1-.7,.3-1,1.1-1H24.6c.5,.1,.7,.3,.7,.8v7.6c0,.7-.3,1-1,1H13.8Zm0-2.6h8.1c.5-.1,.8-.3,.8-.8v-2.5c0-.5-.3-.7-.8-.8H5.8c-.6,0-.8,.3-.8,.9v1.9c0,1.1,.3,1.3,1.3,1.3h7.5Z"/><path class="cls-1" d="M25.3,34.3v3.7c0,.7-.3,1-1,1h-7.3c-.7,0-1-.3-1-1v-7.3c0-.8,.3-1,1-1h7.4c.7,0,.9,.3,.9,1v3.6h0Zm-4.7-2.1h-1.2c-.6,0-.8,.3-.9,.9v2.5c0,.5,.3,.7,.7,.7h2.6c.4,0,.7-.2,.7-.7,.1-.6,.1-1.1,.1-1.7,0-.4,0-.8-.1-1.1,0-.3-.3-.6-.6-.6h-1.3Z"/><path d="M32.2,47.9v-14.3c0-.3,0-.5,.1-.8,0-.3,.2-.5,.6-.6,.1,0,.3-.1,.4-.1h2.1c.7,0,1,.2,1,.9v11.6c0,.8,.3,1,1,1h11.6c.7,0,1,.3,1,1v2.2c0,.6-.3,.9-.9,.9h-11.7c-.6,0-.9,.3-.9,.9v11.9c0,.4-.2,.7-.6,.7h-2.9c-.4,0-.6-.3-.6-.6,0-.2-.1-.5-.1-.7v-8.2c-.1-1.7-.1-3.7-.1-5.8h0Zm.8,0v14.1c0,.6,.3,.8,.8,.9h.9c.5,0,.7-.3,.8-.8v-11.4c0-1.2,.2-1.4,1.4-1.4h10.3c.4,0,.8,0,1.1-.1,.5,0,.7-.3,.8-.8v-1c0-.4-.3-.7-.7-.7s-.8-.1-1.1-.1h-10.6c-.9,0-1.1-.3-1.2-1.1v-9.9c0-.6,0-1.2-.1-1.8,0-.4-.3-.6-.7-.7h-1c-.5,0-.8,.3-.8,.8v1c.1,4.3,.1,8.7,.1,13Z"/><path d="M63.7,68.4v7.5c0,.2,0,.5-.1,.7-.1,.4-.3,.7-.7,.7h-2.7c-.4,0-.7-.3-.7-.7v-11c0-.4,0-.8-.1-1.1,0-.4-.3-.6-.6-.6s-.7-.1-1-.1h-11.2c-.5-.1-.7-.3-.8-.8v-2.5c0-.5,.3-.7,.8-.8h16.1c.7,.1,.9,.3,.9,1v2.8c.1,1.5,.1,3.2,.1,4.9Zm-.8,0h0v-7.2c0-.5-.3-.8-.8-.9h-14.5c-.5,0-.8,.2-.9,.6-.1,.4,0,.9,0,1.4,0,.3,.3,.5,.6,.5,.4,0,.7,.1,1.1,.1h11.2c.4,.1,.6,.3,.7,.7,0,.2,.1,.5,.1,.8v11.2c.1,.7,.3,1,1,1h.2c1.1,0,1.3-.2,1.4-1.3-.1-2.4-.1-4.6-.1-6.9Z"/><path d="M22.7,61.6v14.2c0,.3,0,.5-.1,.8-.1,.4-.3,.7-.7,.7h-2.7c-.4,0-.7-.3-.7-.7,0-.3-.1-.7-.1-1v-28.5c.1-.9,.3-1.1,1.2-1.1h2.1c.6,0,.8,.3,.9,.8v13.1c.1,.4,.1,1.1,.1,1.7h0Zm-.8,0h0v-13.2c0-.3,0-.7-.1-1-.1-.4-.3-.6-.7-.6h-.4c-1.2,0-1.4,.2-1.4,1.3v27.2c0,.2,0,.5,.1,.7,.1,.4,.2,.6,.6,.6s.8,.1,1.2,0c.5,0,.7-.3,.7-.7v-.9c0-4.6,0-9,0-13.4Z"/><path d="M13.8,22.8H6.3c-1.1,0-1.3-.3-1.3-1.3v-1.9c0-.6,.3-.8,.8-.9H21.9c.6,.1,.8,.3,.8,.8v2.5c0,.5-.3,.7-.8,.8H13.8Zm0-.8h6.9c1,0,1.2-.2,1.2-1.2,0-1.1-.2-1.3-1.3-1.3H6.9c-1,0-1.2,.3-1.2,1.2,0,1.1,.2,1.4,1.3,1.4,2.3-.1,4.5-.1,6.8-.1Z"/><path d="M20.6,32.2c.5,0,.9,0,1.4,.1,.4,0,.6,.3,.6,.6,0,.4,.1,.8,.1,1.1,0,.6,0,1.1-.1,1.7,0,.4-.3,.7-.7,.7h-2.6c-.5,0-.7-.3-.7-.7v-2.5c0-.6,.3-.8,.9-.9,.3-.1,.7-.1,1.1-.1h0Zm0,.8c-1,0-1.3,.3-1.3,1.3s.3,1.3,1.3,1.3,1.3-.2,1.3-1.3c0-1-.2-1.3-1.3-1.3Z"/><path class="cls-1" d="M33,47.9v-14.1c0-.5,.3-.8,.8-.8h1c.4,0,.7,.2,.7,.7,.1,.6,.1,1.2,.1,1.8v9.9c0,.9,.3,1.1,1.2,1.1h10.6c.4,0,.8,0,1.1,.1,.4,0,.7,.3,.7,.7v1c0,.5-.3,.7-.8,.8-.4,0-.8,.1-1.1,.1h-10.3c-1.2,0-1.4,.2-1.4,1.4v11.4c-.1,.5-.3,.7-.8,.8h-.9c-.6-.1-.8-.3-.8-.9v-8.4c-.1-1.8-.1-3.7-.1-5.6Z"/><path class="cls-1" d="M62.9,68.4v6.8c0,1.1-.3,1.3-1.4,1.3h-.2c-.7-.1-1-.3-1-1v-11.2c0-.3,0-.5-.1-.8-.1-.4-.3-.6-.7-.7h-11.2c-.4,0-.7,0-1.1-.1-.3,0-.5-.2-.6-.5,0-.5-.1-.9,0-1.4,.1-.4,.3-.6,.9-.6h14.5c.5,.1,.8,.3,.8,.9v2.1c.1,1.8,.1,3.5,.1,5.2h0Z"/><path class="cls-1" d="M21.9,61.6v14.1c-.1,.5-.3,.7-.7,.7h-1.2c-.4,0-.5-.3-.6-.6,0-.2-.1-.5-.1-.7v-27.2c0-1.1,.3-1.3,1.4-1.3h.4c.4,.1,.6,.2,.7,.6,.1,.3,.1,.6,.1,1v11.9c0,.6,0,1,0,1.5h0Z"/><path class="cls-1" d="M13.8,22H7c-1.1,0-1.4-.3-1.3-1.4,0-.9,.3-1.2,1.2-1.2h13.7c1.1,0,1.3,.3,1.3,1.3s-.2,1.2-1.2,1.2h-6c-.3,.1-.6,.1-.9,.1h0Z"/><path class="cls-1" d="M20.6,33c1.1,0,1.3,.2,1.3,1.3,0,1-.3,1.3-1.3,1.3s-1.3-.3-1.3-1.3,.3-1.3,1.3-1.3Z"/></g></g></svg>